<svg width="100" height="105" viewBox="0 0 100 105" fill="none" xmlns="http://www.w3.org/2000/svg">
<path fill-rule="evenodd" clip-rule="evenodd" d="M50.2959 0.356377L17.7515 70.4412L17.2368 70.0848L49.7811 0L50.2959 0.356377ZM70.4142 70.4412L17.7515 70.4412V71.1637H70.0726L79.6381 91.3944H19.8307L19.9348 91.1743L20.1183 91.3037L24.5166 82.0016L24.2604 81.821V81.2791H11.2426V81.4427L11.0105 81.2791L0.42008 103.677H3.37858e-06V104.4H0.078453L0 104.566L0.512441 104.927L0.761708 104.4H98.8812L99.165 105L99.6774 104.639L99.5645 104.4H100V103.677H99.2229L77.2507 57.2074L76.9231 57.4383V57.4358H35.503L50.2959 26.3673L58.5799 44.4304L70.4142 44.4304L70.9311 44.0786L50.8127 0.00461018L50.2959 0.356377L70.0844 43.7078H58.9267L50.8121 26.0142L50.2959 26.3673L49.7843 26.0041L34.9914 57.0726L35.503 57.4358L35.503 58.1583H76.9231V57.9595L98.5396 103.677H1.10334L11.3522 82.0016H23.5886L19.0142 91.6764L19.5266 92.0376L19.5266 92.117H80.4734V91.3944H80.3214L70.4142 70.4412Z" fill="white"/>
<path d="M50.2959 0.356377L17.7515 70.4412L70.4142 70.4412L80.3214 91.3944H80.4734V92.117H19.5266L19.5266 92.0376L19.0142 91.6764L23.5886 82.0016H11.3522L1.10334 103.677H98.5396L76.9231 57.9595V58.1583H35.503L35.503 57.4358L34.9914 57.0726L49.7843 26.0041L50.2959 26.3673L50.8121 26.0142L58.9267 43.7078H70.0844L50.2959 0.356377Z" fill="white"/>
</svg>
