<svg width="200" height="210" viewBox="0 0 200 210" fill="none" xmlns="http://www.w3.org/2000/svg">
<rect width="200" height="210" fill="#111010"/>
<path d="M0 20C0 8.9543 8.95431 0 20 0H180C191.046 0 200 8.95431 200 20V190C200 201.046 191.046 210 180 210H20C8.95431 210 0 201.046 0 190V20Z" fill="#111010"/>
<path d="M0 20C0 8.9543 8.95431 0 20 0H180C191.046 0 200 8.95431 200 20V190C200 201.046 191.046 210 180 210H20C8.95431 210 0 201.046 0 190V20Z" fill="#111010"/>
<path d="M0 20C0 8.9543 8.95431 0 20 0H180C191.046 0 200 8.95431 200 20V190C200 201.046 191.046 210 180 210H20C8.95431 210 0 201.046 0 190V20Z" fill="#111010"/>
<path d="M0 20C0 8.9543 8.95431 0 20 0H180C191.046 0 200 8.95431 200 20V190C200 201.046 191.046 210 180 210H20C8.95431 210 0 201.046 0 190V20Z" fill="#111010"/>
<g filter="url(#filter0_d_0_1)">
<path d="M20 40C20 28.9543 28.9543 20 40 20H160C171.046 20 180 28.9543 180 40V170C180 181.046 171.046 190 160 190H40C28.9543 190 20 181.046 20 170V40Z" fill="white"/>
<path d="M40 20.5H160C170.77 20.5 179.5 29.2304 179.5 40V170C179.5 180.77 170.77 189.5 160 189.5H40C29.2304 189.5 20.5 180.77 20.5 170V40C20.5 29.2304 29.2304 20.5 40 20.5Z" stroke="111010"/>
</g>
<path d="M30 58C30 46.7989 30 41.1984 32.1799 36.9202C34.0973 33.1569 37.1569 30.0973 40.9202 28.1799C45.1984 26 50.7989 26 62 26H138C149.201 26 154.802 26 159.08 28.1799C162.843 30.0973 165.903 33.1569 167.82 36.9202C170 41.1984 170 46.7989 170 58V151C170 162.201 170 167.802 167.82 172.08C165.903 175.843 162.843 178.903 159.08 180.82C154.802 183 149.201 183 138 183H62C50.7989 183 45.1984 183 40.9202 180.82C37.1569 178.903 34.0973 175.843 32.1799 172.08C30 167.802 30 162.201 30 151V58Z" fill="#111010"/>
<path fill-rule="evenodd" clip-rule="evenodd" d="M99.7811 55.3394L68.8639 122.087L68.3749 121.747L99.2921 55L99.7811 55.3394ZM118.893 122.087L68.8639 122.087V122.775H118.569L127.656 142.042H70.8392L70.9381 141.833L71.1124 141.956L75.2908 133.097L75.0473 132.925V132.409H62.6805V132.564L62.46 132.409L52.3991 153.74H52V154.428H52.0745L52 154.586L52.4868 154.931L52.7236 154.428H145.937L146.207 155L146.694 154.656L146.586 154.428H147V153.74H146.262L125.388 109.483L125.077 109.703V109.701H85.7278L99.7811 80.1117L107.651 97.3146L118.893 97.3146L119.384 96.9796L100.272 55.0044L99.7811 55.3394L118.58 96.6265H107.98L100.272 79.7754L99.7811 80.1117L99.2951 79.7658L85.2418 109.355L85.7278 109.701L85.7278 110.389H125.077V110.2L145.613 153.74H53.0482L62.7845 133.097H74.4092L70.0635 142.311L70.5503 142.655L70.5503 142.73H128.45V142.042H128.305L118.893 122.087Z" fill="white"/>
<path d="M99.7811 55.3394L68.8639 122.087L118.893 122.087L128.305 142.042H128.45V142.73H70.5503L70.5503 142.655L70.0635 142.311L74.4092 133.097H62.7845L53.0482 153.74H145.613L125.077 110.2V110.389H85.7278L85.7278 109.701L85.2418 109.355L99.2951 79.7658L99.7811 80.1117L100.272 79.7754L107.98 96.6265H118.58L99.7811 55.3394Z" fill="white"/>
<defs>
<filter id="filter0_d_0_1" x="16" y="20" width="168" height="178" filterUnits="userSpaceOnUse" color-interpolation-filters="sRGB">
<feFlood flood-opacity="0" result="BackgroundImageFix"/>
<feColorMatrix in="SourceAlpha" type="matrix" values="0 0 0 0 0 0 0 0 0 0 0 0 0 0 0 0 0 0 127 0" result="hardAlpha"/>
<feOffset dy="4"/>
<feGaussianBlur stdDeviation="2"/>
<feComposite in2="hardAlpha" operator="out"/>
<feColorMatrix type="matrix" values="0 0 0 0 0 0 0 0 0 0 0 0 0 0 0 0 0 0 0.25 0"/>
<feBlend mode="normal" in2="BackgroundImageFix" result="effect1_dropShadow_0_1"/>
<feBlend mode="normal" in="SourceGraphic" in2="effect1_dropShadow_0_1" result="shape"/>
</filter>
</defs>
</svg>
